<mxfile host="app.diagrams.net" modified="2022-07-04T18:10:44.197Z" agent="5.0 (Windows NT 10.0; Win64; x64) AppleWebKit/537.36 (KHTML, like Gecko) Chrome/103.0.0.0 Safari/537.36" etag="tzPoSAITwcvzA1Id8jkR" version="20.0.4" type="github">
  <diagram id="kmOL19zg8wBDalBaxvVr" name="Page-1">
    <mxGraphModel dx="1422" dy="762" grid="1" gridSize="10" guides="1" tooltips="1" connect="1" arrows="1" fold="1" page="1" pageScale="1" pageWidth="850" pageHeight="1100" math="0" shadow="0">
      <root>
        <mxCell id="0" />
        <mxCell id="1" parent="0" />
        <mxCell id="udO3KAwzz77e0QfNrShv-1" value="" style="shape=image;verticalLabelPosition=bottom;labelBackgroundColor=default;verticalAlign=top;aspect=fixed;imageAspect=0;image=data:image/png,iVBORw0KGgoAAAANSUhEUgAAAjkAAADUCAYAAAB+rjIYAAAgAElEQVR4nOzdeVhU1RvA8e/MsAoKAoKi4oKKobgB7rti7qllmbmlaaWmZeZSamapuf2yXDK1RHMpM1Fx3/cNUEMxEBEQEURW2ZmZe39/KAbCILLI4vk8D089M3fOfec458w7Z7lXIcuyjCAIgiAIQjmjLOkABEEQBEEQioNIcgRBEARBKJdEkiMIgiAIQrkkkhxBEARBEMolkeQIgiAIQhmgDVlFvxo22FRrxKRD6UVSpsZvMd1q2GBj68LMsxlFUma+aUNY1a8GNjbVaDTpULGcQq9YShUEQRAEoWhpU4iLiiJKC4npRbQxWpP8uEypAokZL3uztZaUuCiiHr+hYjmDGMkRBEEQBKFcEkmOIAiCIAjlkkhyBEEQBEEol8SaHEEQBEEoF9K5f3kvO/ed5mpAGFGJavRNzbGwroVj+368O7AV1QyeU4TmAVf37mDnES9u3Y8hRVERWwdX3N56jwHO1s9JGjKI8N7D9p1H8Q6MIC5dHwu7RrTpM5RhvRyoWHRvNN9EkiMIgiAIZZwUf5Efx4xkzq5AkqRcFhCvWsi3zSey0fMH+tvmPomjjdjFhJYf8cu1eLTZitjGuiXzaDpiKRtXjKGJSS7nj7vAivFjmbv9JvHZzv83v69exMIeX7Fx01d0sX65E0giyREEQRCEsky6y5YPBvHFzgi0CkOqtXDj9Q5O2JkpSYkO5Z/jezkeEE/8lZWM+7wd7ba8jeWzuYYch+f0D4kIf4RBdVf69+lM46r6JN27zsl9h7n2IJ5r7h/SM0bi5N9jaZA1e4g/w9ze/Zl/MR5Zz5yG3frRw6U2ldQP8Du5l/0+9wk7NJeB/bUcPDaX1rkkScVGFgRBEASh1NPcXiy300dGaS2P2p369HH1pRlyIz1klJXkdnMvyvHPvjD1uryki5msBFlZbbS897+Xyuprc+Tm+siAjEJPtu29VL4Yq832cm3sZfmHftVlPQUyyspyrzXBsubps4/kY580kPUVyErzNvKMw/dldbZXJ8r/rH1HtjdQyCiMZOevr8jp/70heXE7fRmUsvWo3YWvoFyIhceCIAiCUGZJRF26RKAGFCZdGTepFWbPHmLkyLC3XNAD5EcJPJJyL0lVczg///45rSpnTw2UlV35dNMGxtrroZDiObpqHVc1T85+93e+dw9ErTCn+/zNfOdW7ZkpIlOajP2NTZMd0SeNa+tXcjipSN54vogkRxAEQRDKLCVVx+0hKi6OuPBtvFc5t2NSCQqO5PFKGZncL/mnj+Pw8fS20HEa865MGuOCvkJG7X+Iff9qAInIfbs5lySjrNSdUUProsr1xRVoNXoozfVAG3mU/ZeK58J/uRFrcgRBEAShDFMammJmmOUBbRL3A67j5x/ILf8beJ/cjcexQNSAQmchVrRs2ziPpEBF3Y7tqKO6SIDmFr7X08BJH9+rfqTLgHyd9aMH8Zeul8sR3EcB2kj8fCOgW+2CvNUXJpIcQRAEQSjr0oI5un41G3Yd46z3DcIS1E9HbBTKCthWsyAxPEbHKA6gssbWNu+UQM/WFmsFBMjpxETFImFFbEwcEiAnBHDcIyAfgUo8uH8fEEmOIAiCIAjPIUXs4/N+7/HTlQQkDLFp3IE3Wzahob099RwcadyiBXZHh1Jz7AF03oJT1qB+zv055fT0p69XKlWAEgNDAyAFZZU2DB/Rjio6h4oyKbFsX/UF3l3hiCRHEARBEMqsOPbM/JAVPglQyZlJG/9i0YA6GOU46jm04dwJToOWpjoP0dwJIkwCFBWwrlYZJUpq2tmiIh7ZuCnD5i+hu6HOl5cIsfBYEARBEMqqtPPsPRyBFhXV3v421wQHtERFP55W0klO5OyhEyTqPCAd72NniNKCQt+RFs0NAQMcnZtipgRtxGXO3dLoLj8lgGPbNrN5yw7Oh2nz/fYKSyQ5giAIglBWSfHEJsiAAmMTk9y/1BPOsnbLFTSA7kU5WiK2L2S5T0ruz4ZsYfGm22hQYNCiL/3qPN5HVbH7ANwslaD+h3ULdnA/10xKImLHTIYMG86IMT9x/jnTYkVJJDmCIAiCUFbp1aBGVSWgIfivpfxyLSHLkxqivDYyuc9gfvTLeHzFP20Sicm5FyUnX+TbgW8yb38waU8flUjwdefDAZ+x96EEKlsGTx2DQ+Ze8cpvMHV8CyootIRvH0fP0T9zLiJrFpNM0J7ZvDt1N9GSkso932dondw3mhcHkeQIgiAIQlll0Jrh7zXFSAHa+55MblmLmo1dadvWFac6VajRahQ/XdDi0qcDVVVAxknmdunIB+7BZJs0UtnQuksj9O8d5Ou+DlSr05TWHdrTqrEdNZ1H8+s/j5AUJjQZv5alA62zJA+GOM/8jUW9bdGTE7m+cTwdalWlTpOWtGvXEic7W14bsIBTD2X0awxg6bIR6Lh1VrEQSY4gCIIglFmGuH61jd8+aom1vgJZncA9P28uXPDmRmgCejW68Mmvxzj42yS62ahQyBlE+l3kn3upz5RjjPOXnnh+/y7NKsskhPhy6ew5LvuFk6gB/SrOjPjhEEeX98bm2czB0ImJf59hx6z+OJipQB1HyHUvzp/34kbYIzRKMxr0ncn2k1t53/7ljeIAKGRZ1jlDJwiCIAhC2ZAS5s2ZyzcJvhdNhpEVdo3a0rlNPcyf5BXJQcf4y/MqcRXq0K5fP1pWM4CMWO7ejSYNA8xr1MbaCEi5j8+JY1wKiCRFWYlqDZzp3NmF6hWeH4OUGMLlU+f4JyiSR1p9zGzsadquI661K5bIqIpIcgRBEARBKJfEdJUgCIIgCOWSSHIEQRAEQchGo8njmjdliEhyBEEQBEF4KjQ0lA0bNpR0GEVCJDmCIAiCIDy1du1atm7dWtJhFAmx8FgQBEEQBAAyMjIwNHx8A6qIiAiqVn15N9MsDmIkRxAEQRAEAHbu3Pn0/3fs2FGCkRQNkeQIgiAIggDAzz///PT///zzzxKMpGiI6SpBEARBELhx4wZOTk7ZHgsLC6NGjRolFFHhiZEcQRAEQRBYs2ZNjsfK+pSVGMkRBEEQhFdcUlISVatWJTk5+y3KW7duzYULF0ooqsITIzmCIAiC8IrbsmVLjgQH4OLFi4SGhpZAREVDJDmCIAiC8AqTZZlVq1bpfH779u0vMZqiJZIcQRAEQXiFXbhwgevXr+t8XiQ5giAIgiCUSVm3jefG29uboKCglxRN0RJJjiAIgiC8oh4+fJiv6+GU1dEckeQIgiAIwitqw4YNqNXq5x73xx9/vIRoip7YQi4IgiAIryBJkrC3tyc0NJT8pAL+/v44ODi8hMiKjhjJEQRBEIRX0KFDhwgJCclXggNlc8pKJDmCIAiC8Ao6e/YsTk5O2NraUr16dSwsLDAyMtJ5fFm8l5WYrhIEQRAEAYDjx4/TrVs35s2bx5QpU0hNTSUtLe3pn6OjI0pl2Rkf0SvpAARBEARBKB3S0tIAMDU1xcTEBBMTkxKOqHDKTjomCIIgCEKxykxy8pq2KktEkiMIgiAIAiCSHEEQBEEQyimR5AiCIAiCUC6lpqYCIskRBEEQBKGcESM5giAIgiCUSyLJEQRBEAShXBJJjiAIgiAI5VJmkmNsbFzCkRQNkeQIgiAIggCIkRxBEARBEMopkeQIgiAIglAulbct5KXqBp1JSUlcvXoVb29vvL29uX//PqmpqU9vEFaKQhWEF6JQKDAyMsLIyAhjY2NsbGxwdnbGxcUFZ2dnzMzMSjpEoQhIkkRQUBBeXl54e3vj5+dHcnLy0z5MrVaXdIiCkKeIiAiSkpKoW7cuKpUq23P6+vpP+zBTU1MaNWqEi4sLLi4u1KtXD4VCUUJR61aiSc6NGzc4derU4w7By4t///0XKUs4SoUCY0NDjA0NMdTXR1WG7nwqCFlJkkS6Wk1qRgZpGRlotNpszzeoXx/Xli1xcXGhffv2ODs7l8oOQ8guMTGRQ4cO4e3t/bgf8/HhUUJCtmP0DQ0xNDbGwMgIlb6++HcVSrW05GTSU1OpZGmZ7bMqyzJatZqMtDTSU1NRp6dne52ZuTkuT364ubq60qNHDypWrPiyw8/hpSc5arWanTt3suKnnzh3/vzTx81MTHBxcMDVweHxfxs2pKa1tegQhHLpfnQ03gEBePn7P/5vQAAxjx49fb5F8+ZM/OQThgwZUm52OZQn/v7+rFq1CveNG0lKTARAoVRSy9ERBxcXGrq64uDign2TJhiUk2F/QcgqIy2N2//8Q4C3NwFeXgR4exNy8yY8SSkqVqrE+6NGMX78eBwcHEoszpeW5ERERLB27Vp+WbOGiMhIFEC/tm15p0sXXBs2xN7WFqUYqRFeUbIsE/rgAV7+/vx9+jR/nz6NRqvF0sKCD8aO5eOPP6ZWrVolHeYrTavVsm/fPlauXMmRI0cAsKlViz5jx9KsUyfqNWuGsalpCUcpCCUnNSmJwKtX+efUKfauW0fU3bsA9OjRg4kTJ9K7d+8cU2DFrdiTnICAAL755hv+2r4djVZLZVNTPujTh4/feIM61aoV56kFocy6Hx3N2r17+cXTk8jYWJQKBf369+frr7+mefPmJR3eK0WtVrNy5UqW//gjd0NDAXB2c2PgxIm07tPnpXfaglAWaLVaLnh64rFyJVeOHQOgdp06fDp5MhMmTEBPT++lxFFsSY4kSfz000/MnDGDtPR0mtnb88mgQQzp2pUKYvhWEPIlQ63m79OnWenhwXk/P/RUKmbNns2XX36Jvr5+SYdX7vn5+TFi5Eiu+PhgbGrK66NGMXDCBOwaNizp0AShzAi5eZPdq1dzaONGUpOScG3Zko3u7rz22mvFfu5iSXKCgoJ4f9Qozpw9i03lyvwyZQr927UT62sEoRBOXL3K6MWLCYmMpEXz5mzctInGjRuXdFjlklarZdmyZcyaPRt1Rga9P/iAj5cuxVTsghOEAkuKj2f1559z4LffMDA0ZMH8+Xz66afFOhpapEmOJEmsWbOGaV98QXJKCkO6dGHl5MlYio5BEIpEYkoKX6xZwy+enhjo6zP3m2/44osvXtrQ76vg1q1bjBw1iosXLmBpa8sX69fTqlevkg5LEMqNC/v2sXTsWGIjImjbrh0b3d2pV69esZyryJKc6Oho3h0yhKPHjmFlZsbPn33GW506FUXRgiA847CXF2OWLOHew4e0atmS7X/9hZ2dXUmHVeatXbuWyZ9+SlpqKj1GjGDi8uVUrFy5pMMShHLnUWwsKyZN4uiWLRhXqMBPP/7IBx98UOTnKZIkJzo6mm5du+J7/ToD27dnzZQpWIuOQRCKVXxSEp+tXIn7oUPUqV2bk6dOiUSnEP73v//x+eefY25tzedr19L+jTdKOiRBKPfOeHiw7MMPSXj4kOXLlzN58uQiLb/QSU7WBOezt95i2fjxYu2NILxE32/dysx160SiUwiZCY61nR3LT56kWp06JR2SILwywoOC+KxLFx6GhRV5olOoC9OIBEcQSt6MoUNZOHYswSEhdO7UibtPrk0h5I9IcAShZFW3t+eHEyeoUrMmn376KT/++GORlV3gJEckOIJQeohEp2BEgiMIpUNxJToFmq5KSEigY4cOIsERhFIm69TVufPnqSYuuKnTihUrmDRpkkhwBKEUyTp1tWrVKsaPH1+o8gqU5IwePZoNGzYwadAglk+cKBIcQShFFmzezFe//kqfPn3w9PQU7TMXV69exbVlSyyqVuXH06dFgiMIpUh4UBCTO3Yk4eFDfLy9adKkSYHLeuHpqr1797JhwwZaNmwoRnAEoRSa+d579G7Vin379uHu7l7S4ZQ66enpjBg5Eq1Gw8xNm0SCIwilTHV7e2Zu3IhGrWbEyJFkZGQUuKwXSnJiY2MZ+8EHGOrr4z5jBnrini2CUOooFArWTZ2Kuakpn06eTFhYWEmHVKrMmzePG9evM/CTT2jepUtJhyMIQi6cu3en/8cf88+1a8yfP7/A5bzQdNV7773H1q1bWfbxx0x5++0Cn1QQhOK3+cgRhi9YgFv37hw6fFiMugKXL1+mdZs22Naty7pr1zA2MSnpkARB0CE1KYkxTZvyIDSUy5cu4ezs/MJl5HskZ+fOnWzdupX2jRsz+c03X/hEgiC8XO91786Adu04cvQov/zyS0mHU+JSU1MZMXIksiwz3d1dJDiCUMoZm5oyfcMGJElixMiRpKenv3AZ+Upy4uPj+ejDD6lgaIj7jBnFejMtQRCKhkKhYM2UKVhWqsTUzz/n3r17JR1Sifr2228J8Pfn7c8/x6ldu5IORxCEfGjasSNvTp7MTT8/vvvuuxd+fb6mq3744QemTJnConHjmPbuuwUKtPTR4u3+KW/svodG5zEKlCp9KppZ4+DQjIG93mCYkxUGLzHKskVLiMcs2m/yR2vWhQj3SSUdUP5pQ1k2bSqL70hUf302Fz9qVm7+nd0PHuT9RYuYMWMGCxcuLOlwSkRiYiK21atjbG7O5lu3MDAyKumQiobGG/fOb7A7UHcvhkKJyrAiZjUdcOgykF4fD8PJtrx8uoueNmQVs9rPw19rRRf3K0x63bCkQ8onLaHLejJ1sS9S9ZHMvriYZuXknzk9NZVh9eujTk4m/N49TF5gFPa5IzmSJLFq5UoqGBoyrl+/QgVaukho0h4RFR+fx18ckTFRBN65wd4Dm/ng0zF0WXuZB1JJx66Lmos7lzBywQLG/HmNpBKIQJue9LjuElJK4OyFIZGcFEdUfDwxKVqK5K61pcTQbt2wqVyZdWvXkpaWVtLhlIjff/+dpMREBkyYUH4SHABJQ1psFPFRefw9iCTmbiB3zu3lwHcf8GnTLqw99IDS2o2pL65gycgRLBizlGsl0omlkBQVRXxUNCnpZaknkJGS44iLiiI+JhFtWQr9OQyNjen/8cckxMezZcuWF3qt3vMOOHToEEF37vBhv36Ym5oWOMhSTVmDEZM/YnCV7DmfrE0nITYCX98zbD39L+HqR5z/YwHjaqxhZ++qlL5JOy0h/xzn99NpGMQ3Yck7zUo6IKEUMNDXZ1zfvnz7++/8+eefjBw5sqRDeqlkWWbFypXoGxrSZ8yYkg6n2CgbjGDyksFk78ZktKkJxAb74uuxldOXwlFHn+eP4eOo4bWT3rVKYS8Wcprjv+8gzaAnTZZMRfRiAkDfsWPZNG8eK1auZOzYsfneSPHcJGflypUATBgwoHARlmaKCtg7taZvHR0Nvv87fH55Bd1n7eKGOoEDf3ly5fWxuJa+/qGEqajVdzY326WDSizqLE0+7NePhVu3suKnnxgxYkSp2WkVFRXF4cOHGTJkCHp6z+2OCuTEiRP4//svr48ahZmVVbGcozRQVLTHqXdf6uioxv5TP+fy5O7MWnUD9cMD/PXLFV5f4FoKf6yVLFWtscy++Qbp6GFSrRyN+pVxla2t6fz22xzdvJkzZ87QsWPHfL0uz+mq27dvc2D/fjo3bYpT3bpFEmjZpMSm5fvMaG2KElCH+XIyUlvSQZVKeqbW1KtZk3q2FiUdipBF9SpVGNShAz5XrnDp0qWSDuepJUuWMHz4cN58800KcPH1fFmxYgUAgz75pFjKLzOUNrT8ZgatzZWAmrDTJxHdWC70zLGu14Ca9epiIX6rlSqZbTizTedHnj+dVq9ejQxMHDiwUIGVDyY0r18d1ZkAJDmWew8lqK4CbThHDvoQpDXGsXVXOlqr0CYEsvPAUQ74h0OzUfw2oN5/xahj8D5/gp0+AQTGJJGuVxG72o3o082NXnYVChZaWjhnfYKJljVci3080y4l3OHA2bOYACbVGuNmb/7isWZEc/nCGfb5BhIQFUeiRg9T00pYV61F+zbdGOhomWNxbtJdH/bfTkA2qMo77R2fPKol7J/j7A9NRa+qM6NaVoeE2+w6dIwD/mFEpkgYVrSmsVN7hru5UM84j/daiPrTxAey++hJjvjfJTxJg37FajRv1prBnVrSMK9zlhMTBw5k+8mTrFy5ktatW5d0OAAkJycDsGfPHpYvX85nn31WpOWHhoaye88eHNu0oUGLFkVadplk1pz69VSc8ZKQI+/xUAvVVVrCj7jjE6TB2LE3XTvWRKWNIXDnbxw94EU4nfnut+z3D1JHeHN++058vAOJiUtHz8KO2m360G1YL+wqFiSwFMLPHiU4WkJzLfLxeiHpIXcO7OKsCWBSl8bdmmCuBG3QEQ4eDUJr4kjrdztirdKScHUnB7YcwD8Ims1dy4CmmV9t6URf3suZfacJDAgjLlGNnqk5laxrUat9P7oNbIVljk7MH5/910iQjajaoT+Oto/HArRhpzm+/yapenVwHvU61Ynh9q6NHDtwmbDIRCRDC6wbt6f98GG41Ms7Oypw/WkeErh7CyePeHE3PB6NvgXVmnei9eDBtGxY/jOy11q2xMHVlZ0eHty7d48aNWo89zU6kxxZlvl90yZsLS15o337Ig20rNI+XcmlQJk5BqYOYO3KH9iRYcXYqp1witzK4HkbOR6jRUZJ7cqDnhwoEee3k/FL3dkekpx90d/pI6zetoUew2ayaVhzrF/wZhtS/Dm+/PpnzmT5Vaa+5cGw2R6Aklr9FxPymfMLxRp/82/GLPyNXffScl2guGrLJpoPnInnhHbYPo1Xy4Pz7gz75QZa89ezJTn+x9YywTMaow5f4qZ/hFHfbeZkbPYFvjuP7mbZjtdZ+/0XDLV9dhC9MPWXyo2DKxm56iBXk6Rs5/Q46sF89+Z8NnloudlNpUt7Jyec6tThr+3bWbduHcbGJZ/ZmWZZ5zdlyufUqVOHAUU4Nb5t2zZkSWJAIW/yV27IWrSZjUepfDKUn07A2k/5YUcqVmP30skphK2Dh7Dx+H20MihrW//3eikOvxXjWTp3OyHx2XuG07+vZtvCHgzbuIlhXaxf7HL6UhTnvnyLn8+o/3tM7YPHsIF4AMpaH7M4YDXOhqD2WsvKj3eQYTuWqm85EblwMPPmHSdGLYOqNpU/0QJ6SPEX+XvMSH7bFUialMso4aqFbGo+kZmeP9Duv04M7QNP3IdN44bWmtc9euLY//GUldZ/K2sn/EK00SC+dDPgyKj32HwyIvsC352b2b1sOa+v3ccXQ+vmnAosRP2l3nBn5cgpHLwaR7a347EZj/nf0PyzFQwt750YMGDCBBaNGsW2bdv44osvnnu8ziQnJCSE6JgYhnXvLm7fACDFceHfMDSAQmlFLeucdSI9PMjoX905Fvf4w6tnaIKFsT4A8b7u9P5yMxeTZfRMatKtrSsuVSugjgvh5IVL+MQ85JD7bPpLizk2ypEXysmVRlhZWWKrgbTEWOIyZNA3oWolIxQosDbVf6FYpQdH+WD2GnbGSij0LWjh7EqHujaYKdOIjgzi+IWrBCQnc8VjGZ83bsyWLmb57tC00ScYO+8iJxMr0bhla7rYW2NOAte9T7M3MJ7ksMNMXNGY9vP7Ypel0ILXn5agAwvoufQs4RIoDK1p17o17WtVxiAtBr/rFznw71UWzb9HTcNytB0hFwqFAjcXF64HB+Pr60urVq1KOqSnZszYyI8/TuTdd4dy+vQpXF1di6Tcy5cvA+Ds5lYk5ZV1UtQF/r2lARQoq9fC+tlvACmcg6Nn4X4sEgkF6BljYpE5tBCP79zefDn/IsmyHiYNu9G2hwtVK6mJ8zvJhf0+xIQdwn1gf6SDxxjV+kV6MRVGVrZY2qohLY7YuFRkjDCpaoGRAhTW5ujnWEYm8XDjaH6de4w4LaDQw9DMAmMDBUh3OfrBINbsjEBSGGLRwg3XDk7YmClJiw4l6PhergbEk3xlJcs+b0fjLW9jlu9O7D4nxg7h4sk4KjXuResuTbE2l0m4foTTe68Sn+zP4YmTaNx+D32zdmKFqD9t0AYW9BzH2XANKCpg3a4Prdu/RmWDFGL8znDxwGWuLhrGvZoVytXO0Ny4PGnLXl5e+TpeZ5KTWYCLg0MRhFXWZXDr6M9875OKDBjUbUH3Z3ZiIadyatsGguONaeY2lFmD3OjZoAomSiDlCnOWbOVSMpg7vsv2eWNws8ySJKUGsW7JHCaeuM/lrT+ypN1K5tbPmZjoorTuz84/+gNp/PH1QIaeTsOg2UfcWNyXXFfG5BUrWrx3b2N3rISyQmPmLFnI147Zd9WlBf9J709+4URyPKe8bpLRpQ35XZ6X9u8Fjpo357sfvmaGU5bkaMwQNs2bxOjT0cT7nGBvbG/GWz15thD1J0UdYsqac4RLoG/TkZULZjCubtYRjCSu7VnCoJ9OE5wGBbhnbZmS2Z69vLxKVZJTt64T33yzgxkzetO3bz8uXbpI7dq1C13uZS8vqtSsiYWNTRFEWcal3eLo1O/xSZJBYUDdrt1z7MRKPbWIDcFRGDcbztBZn+DW05kqjzsGUo7PYcn3l0jGHMfp25n3rRuWWb5BUn3XsWTQRE4EXWbrxCW0Oz+X+vkdWVDWpP/OEPoDaX8MZuDQHaQZdOajGwfoq2N5n5x8im1zgomv2Ay3GbMYNKwnDaqboAS0l39m2+4IJGUlGs85zMKvW5GtF0u7wZ+92/PLiQTiTx3iZsbbtMl3J3aRC0etaf7dCb6e0S5LcvQdQza9y6TRO4iOP8aJvZH0Hm/7tEcpcP1JYRya8gXnwjWgX4uOKz2ZMc6JbL3YtTUsGTSJ08GPp3/Lcy9mZWuLRbVqXC5skuPt7Q2Aa8OGRRNZaSYn4HNiNyuvPfNTQVKT9CiKG74X2esbToIECmUV3hnaF8dnB3LkZG6HG9Di3aUcH+eE2X+FcPfwVtzvaVGYuDD/q2e+oAGM7Rk7bSaBwZ+yNOQ26z28mTqtDcW2YV9nrIAUx6V/H18gsWLzvkxyzBmFUS033nJYz4krGh4lp7zY9TYUJvQaMyN7ggOgqsaQt7ux8Oyf+GvD8QvVgJUBhas/LTcP7ubgIxmUVRj+ydRnEhwAU5r1n8HG8JmzL7oAACAASURBVFC6bQ9FTfmW2Z4z23dp4urag88++5lly8bRu3cfzp8/h7m5eYHLi4yMJPzePToMGvT8g8sBOdqHEz+vJEc3lpHEo7s38N2/F9/bCUiyAmXNdxg6zvGZ6RSJ5Nu3MWgxjaXHv8cpa8cg3eXw9+7cUysw6TGfr75zI0czbDKWaZsCCe68lJBr6/E4PJVpfYvvsiNy/G3CjVvw7uHjjGufLVjiLl3ingao2JW+k1rl7EuNHHF7y4X1J46heZRAygt1YkpMen3HjGwJDoAe1YZModvCXfzprybc71802D6eBi9E/WlvurP7YCwyKqoM/4mpzyQ4AKbNPmLGxtuEdvsfoeryPpYDDV1dOb9nD9HR0Vg9Z8dkniM5SoWCZvXq6Tqk/JAesOf3Fex5zmEKfRv6jJnDik4WuWbKKqvuzBv2bNIQy75zN0hCgZlzz1zWmjxh9Bqju9Vn+a/+RPpc5FJGG7oV4/xqrrECKC0Yt8CD4VpQGRiT6xq49HCCY580pBfcEaOo4Mx7nXOfr9ezsqKqEvy1KSQkP3mwMPWn95AjV+6gBvSqd+WDlrpW9BnTdkAf2nqs5lQ5z3LsbW0xNzXF68k0TmnTt+9YwsNv88cfi3nzzbc4cGA/BgYFawiZiZyDi0tRhlhqSaF7+H3Sc3sx9Gv1YcyfK+hkk0srVFWn+7yvsic4gBS5j3PnkkBphvOooehshq1G0635cn69HInP/kvQt1uB3kv+qLAaOo9h7Z/txZRYjNuDx3ANqIwwzrXZpxIeHPlkakd+sSkeRSWc33s797WTetWxqqoEfw0pCQlPHy54/XXh4ZFj3FHLoFefrh/0zL1PBozbTqBP21WsPlX+L/jp4OLC+T178Pb2pmfPnnkem2uSI0kSPt7eNKpdmwrl6eqguiiMqFHLDptc+lKFQoVJpSrUb9CMAT1ep4/OHTwKLFu0ocuzT2vucDVEjQzIwfsYPfukzjDkmGgAtLEh+MZKdKuq5dKOZSz+J1lHI9SjSd8pzG31otsZdMQKgBJDY1OyXshcmxpNwJ0Q/O+F4R8cwMlzZzl2r2B7T/Ws7Wiga72rQoECQJb+W1hXmPqzCMXvnoSMAjMHR5rmMQOosnaibXUVp0LK968ghUKBS4MGHLtyhaSkpGwLf0uLsWMXEhERzPHjf/HRRx/x66+/Fui6PplJTsMiWt9T2ilMalCroU3OBfQKBQo9EyrVqE+DzgPoMaKPzh08CsuutOmS80mN71VC0mVAJnj9aGb/pSsKmZj7AFpi/XyBbqgv/ciyxadI1tG09JqMZcrcXjq/vHVSWtKiXxdy68aUhqaYZuvEkogOuE6IfyBh/jcIOLmbs8cCKVAvplcTuwa61hspePxRlZGk/4aHCl5/7Qn1C0SSQWHmjGPTPBJ+VU2c2tqjOuVX7tflZLbpAic5gYGBJCYl4fKq7KpS2jF2zmrm6LoYYP4KoXaNmuS4y4n0iJjExx/2hLCreITloygpjvvRWqgqE3HrArvOPtIxJaRHQouJSLzoHKyOWLNIi/Bh/a4D7LpyHe/gKBKy9AZKQyuqVUoh/FEBmpK+fr7X7wCFqz/zRGKTHteOtaVV3tdLUFhRzVwB5b57eLwu5+iVK1y9epUOHTqUdDg5KJVKZs7cyMOH99iwYQP29vZ89dVXL1xOZpLTwNm5qEMslZQNxzLn4hydFwPMVxm1G1Azl45Bio0hUQLkBMKOe5CvZvjgPgByhA8XdnnwSMeUkF5CVya+eCcGqtrUaJBHL5YWjM/61RzYdYzr3jeISsgyTKusgFU1C1LCYwrQ4g3RN3qxpLvg9aclMTb+cR9vbYtVnv+2SqyqWaOg/Cc5maOz+Zl2z7XKrl27BoBzgwZFGFZ5p8DU1IQcH32lPoZ6QLqCKo49GNHYLOcxOV5jRnuLxy2+fqsBfF45TceHVkW9+sYFWGSmI1YAJCIurKbf/J1cSZZBvzKNm3SkZV077KtXx6FWHVo0sOHot28z9vJLmNspVP0p0XuSt2rl5026a8rVvV7y4vxk8fG1a9dKZZIDYGhozPz5uxk/vjWzZs2ibt26vPuCNwe+eu0a1erWpWLlysUUZfmjMDXDJJcGpjQwRA9IV1bBcfgIGld5/pe80vLxj2RV/V4M+NyGNB3tS1WvBcYFWSmrMMXUTEcvFrGP1f3eY+eVBGQMqdy4Ax1bNsHO3p7qDo7UadECm6NDeXvsgZeyDq8w9afMvBK4Vnru+keNtrTekaxomVlZYW1nx9UnuUpeck1yHj16BICVWY4VG0IeVMpcWqqiCnZWSkgGY3s35n/snOcIyrMadXufxcUwrZ1rrACJ55n5Pw98kqFSg0FsnPshA6o9O0SaWPQB6VKY+lNbUb2yElIkIu9HkEJj3dfC0UQSVHrvvFqkMtt1ZjvXJSwsjD/++KPYrkQMsHTpUp3PmZtX4fvv9zNxYhtGjhxFjRo1Xigpe/ToETVee60ownx1qFS5/mhS1LTDSgXJsjH2w+bzcff892KqRu/y/uIXS1DzWTLKXAff4zg/80M8fBKgkjODNv7FhwPq5Gj7L7EXK0T9ZWBV3QYlj5Ai7xCRAo11dmJqIoPultobrxY1MysrHgYHP/e4XJOc1NRUAIwNy8ot5ksx/do425uiDH1EhP91bmmdcdIxK5Zy14fdAbFIBtXo2L4xNUvg8kRpNy5wOEYCpRVvj84twQG0cUQnvqSmVJj606+Lq70xivBkkm5c5EiiG4N1TPxn3PHi5MOCjJmXPcZPFvJmtnNdFixYwJo1a4o9HqVShZlZ7jsk7OwcmDfPg6lT3XjjjQFcunSR+vXr56vc1NTU8nXH8RKk7+iMvZmS0JgI/M/dQtvdScc9r1K4e2w3ARESBnU70qltzZccKZB2nguHI5BQYfX2t7kmOKAlLjrupSUEham/uq5NMFYEkpx0jotH4nAbrGNkMsMXr5P3CrB8oWwyMDJ6bh8Gz0lyjAq4q0HIqgLd2ztjeeIED4P2seBUX7Z0tcr5IZRi2LFuHu+ffYS+00f4tW9cuNPKUoEW1UlJj0iQAYUBJjrmnROu72VL4OPSi3+GpzD1Z8rrHV2wPHOK6PizLNruR68xjXJuJ9VG8Pvv+7n5itzHxyifSU7mLRdmzNiIpWW1YovH3LwK1ta6vwybNevE9Om/sWDBcHr16s3Fixeeu21Uo9Gg1WgwLAVXdS4XKnanvZslJ/54SNC6BZwau4Wutjm/SqWIHawb8j5nY/RxWuxHp7aFOamEVKBOLJ5HCTKgxMBEx7R8wln2brnyuI98GdPUhag/09ffxMXSg1PRDzm7aBl+vb6jUc5OjIjfv2P/zXK+PTQLQ2Nj0tPSkGU5z40JuSY5GRkZjwvRz/8F6QTdKrd7h/H1zzPvVjTbl07DMPEzFvZ2olpm9aaGs2fLEqaee4SkqEjPXt0o2BpoJYYGBihIQxPixebL9ehiaYSRWTUaWuWvs9erUoWqSrgjRfLXn56Msh9Es8wGpY3D68hmPluzCz/Nk4dSU0iGXHc4FJXC1J9lh3cZX/8i395K58rWuQxUfsaaIW2xf1Id2oR/WbdqEVPPx78yw7yZSU5aWv62mrq4uBVrkpMfbm7DCA8PYuPGubzxxgCOHTuKUR6jNJl9mJ74oVZEKtNu6njq75nHrfDtLO1pSOLPC+ndrhpPm2HQHraMmcq5aAmFRU96Da1ToDMpDY0wUECa5iZemw9Sr4stRkZWVGtom+P6MLnSq0GVqkq4oyHyr6V4jmrKoGaZSy80xHltYfNnX7DL7/FnBG0SKcXdiRWm/iwH8e745lz81of0K4uYO1DFZ2um0db+yQ4vbQz/rvuMRVM9iX9VOjFA/8lMU0ZGBoZ5zDrlveGkANs2hVwYODBz+od4T1vJ/phgNi6fxNb1NjSsbkVFkgkLC+NeihYZFTU6fMyyHrmMVOSLikb2dhgcvUFa9FmmTD9LtntX5SdUxx68Z7+X7wLV3L+wgpZDttGgujWVSCEiPIzQZC2Kiq/RxymSA9fjyLjmTpdJAUydOYVRxfU9WJj6M3Bg5rRxeE1bxcHYaI5u+oqGf1vhUN0aMxK5ExrOg3QJlVUj2hr8y/n7xfQeSpGy2q5HjpxDRMQdDh/exPvvv8+WLVtQ6lpb9kRZfa+lkYHzTKYv8mbaZ/uJub6R5R22sr5WQ6rbVoRHYYQF3CNFLYN+DTosXUaPXEYq8kPVqAl2BgpupN3j7JRenCX7vaueH2hrerzXlL3fXUF935MVLWuxrUF9rCtBSsRtwkLj0SoseK1PByIPnCEu4yTuXToSMHUjU0YVLDHLj4LXnyEOM39jnFdPVh2MIProPL5q+CNWDvWxNoPEOzcJf5CCpKpOo7ZG/Hs+qNjeQ2mS37b9KkzdlQqGdQfy90/fMKttTcyUoE56wPUAP84HhBCWokVpUoO+783l5Kxe2Bd4LY6KBv3Hs6RHI+qZGaGv5Pk7kZ5l0JCvZk/no4bm6APq5Gj8bt3kwq0QQpNV1Gg2kF//t5jf3nTGRgmyJg6/m7e5l17QmPOnMPVnZD+IncvnMNXZhgoK0Dx5T+dvhRGZrsCiXg9+mjeeHqbiC7E0UygUTJ26jqZNO/PHH38we/bskg7pFWNI3Yl/89OOWbR1MEOJmqSQ6wScP0/AjTBSNEpMGvTlve0nmfW+vY41J8+navAR45cMp1G9KhjpqwrQiRnS8KttTP+oJeb6ClAnEO3nzc0L3oSEJqCq0YWBvx5j8W+TcLZRgZxBnN9Fbt97/vqOwilE/Rk1YdDOk8yZ6oZNBSVonryn896ERaaisGhOj592Mr6H+YtXVzmnkHPZOvHtt98yZ84cTi1fTsemTUsirnJMIjHSn1PXbxMUm4JWzwQbW3vaNW1I7QqlKedMIyzAl8shkdxLUGNkZkOjxs1oU930SeNLJcjnFJ63E6lQtTH92r723/RRsSpM/WmJCfHluF8wd5O0GFe0xL5BMzrXs8AQNbEPoojOAH1TS+pULr8LVm+FheEwYgTjx49n1apVOo8bMWIEv//+Ozt23C/x6aqsEhPjmDChDWFhAfz666+MHj06xzEpKSmYmJjQtn9/5u/eXQJRlnNSIpGXT3H9nyBiH2nRM7PBtmk7mrrWpjR1Y2lh3vhevknkvWjURlbYNGpLszb1MH2SQaQGHeOU51USK9Shcb9+vJbbRoviUIj608bcxPf4BYLvxqE1tsDS3plmnZtiYQjq2LtERaeBvjmWdaxf7JpkZczMvn25uG8faWlpBZ+uEoqDkopVHelb1bGkA3kOI2o6tKSmzvuzGmPv3JNPX/p11gpTfyosazdncO3muTynj4VN9dxvaCqUKhUrVub77/czfnxrxo37EDs7O7p3717SYb1alBWp2rovVVuXdCB5M6rpQsuaum/rYWzfjZ6fFuetJ3QoRP2pLB1pPtiRXHsxCzuqi04sm1KUcwuCIOSPrW1dFizYg0qlx6BBb3Ljxo2SDkkQhFJIJDmCIJRJjo6t+fLL30lMfETv3n2IiIgo6ZAEQShlRJIjCEKZ1anTW3z44WLCwu7St2+/p9f2EQRBAJHkCIJQxr3zzlT69fuQK1d8GDp0aLa7PwuC8GoTSY4gCGWaQqFg3LhFAOzZs4fw8PASjkgQhNJCJDmCIJRpWq2WBQuGA/DRRx9Ro0aNEo5IEITSQiQ5giCUaT///DkXLnjy+us9WbFihbjKsSAIT4kkRxCEMmvnzhX8/fePODk1Yfv2P9HTE5f+EgThPyLJEQShTDp/3pOVKz+lWjVb9u/fR6VKlUo6JEEQShmR5AiCUOYEBPgwb94QjI2N2bdvr1iHIwhCrsTYbiFpAtzp/NVuArUv8io9Gg1ezPGhxXfH29JEG/onPaf+ga9kxcjZq1nc7KXc5Eoopx48uMuXX/YlIyONvXs9ad48twvcC/mi8ca98xvsDtTkfE6hQKlniJF5FarUfY16rbrQ+q03aeFg9mr+Otb+y5893fjDV8Jq5DZWL+6E6MlKP5HkFJKkTSM2Lp6oF7o0hwrb9BfKiso0WUojLi6eKNmARG2O+8EKQr4lJSUwY0YfYmMjWbVqFb179y7pkMo2SUNabBTxUbkkOZnC73Lfz4d/PDfz99wvsH9rOhOWfU5z24LeZ7yMkrWkxUURHyVhkKhG9GRlg0hyioySBj0ms6RzlXz8ylFgVsP2JcQkCOWHRqNm7tzBhITcYMqUKYwfP76kQypXlA1GMHnJYKpk6cBkTTqpseHc++c83rv34nc3lqA/ZjDt4mUm79tCX0fdd38WhNIgzyRHlkWumn8KKto60btNHZE5CqWa9KRdl6Wt1rIss3z5BHx8jjBw4ECWLFmS79cJ+aOoaI9T777UybUDm8TIxSFcmDuCRUvOkhCyk5/e+Yoa55fSrOLLjlQQyPeVzXP9OBsaPs7O0zIyii4iQRBKhcx2bWRklK/j9+5dh6VltWKLx8amFi4ubnkmXdu2LWbfvnW4urZk8+bNKJV5j5dm9mHq9PQijfWVZlibNgt3Mye1A9N/8kPt9zPrVr3PTzMa8YpNXAmlgDo9HRQKDAwM8jwu1yTH2NgYEEnOy6El7J/j7A9NRa+qM6NaVoeE2+w6dIwD/mFEpkgYVrSmsVN7hru5UM84j6JSwjl64hj7bgQTHJ+KpGeCjW1tWjl35E3nWlTOoydKj/mX3cfPcuJWGOGJGSgMzahZuyFuHbvS197sOZ2YloeBZ9ly0gevuw+J1+hhUa0+nVp3ZnBLO0zyUw3qGLzPn2CnTwCBMUmk61XErnYj+nRzo5ddhZxnDPfG3ec+GuNa9O7alJoqLTGBZ/jt6CW8wqHzqKmMrye63txktuvMdq6Licnjfzl396+LPaYNG/yoXdsx1+dOnNjOunUzqFWrNp6ee6hQIefn4VkqlQo9fX3SU1OLOtRXXGVazPmaTn8O4VhkCv6bNhEwZRGOuXzPqCO8Ob99Jz7egcTEpaNnYUftNn3oNqwXdnmO/iQSfnQ7x/adIzg4ilTJABObutRu1Z2Ob7pRK6+OjHRiLu/m+K4T3AoIJzFNgaFVTWq3dKPjkL7YWz6nJ3t4lbNb/sLHy5+H8Wr0LOpQv1MfOg9+Hbt8dWQv+L61QXi7H+W+xoRavd+laU0V2pirnPltC5e8gqDzXKaPb5q/E79i0lNTMTIyeu6IdJ5JTqpIcl4CLf7H1jLBMxqjDl/ipn+EUd9t5mSsNtvCtp1Hd7Nsx+us/f4LhuZY8Kcm+Mx63v9pJ6ejNTkWxK3fvpEvHXrzw5cTec/umd5IiuX4lv/x0dbz3E6Ts7/29GFWb/6Npm5jWT+xP86muYSfGoz7yoVMORhIXLbRw7Ns9tjMN83fYsXQvPYgSMT57WT8Une2hySTrYjTR1i9bQs9hs1k07DmWGf58Z4e4MmnP5wm1aoPezvVJWTrXIZsvMJ9LaC0wXqQFsTvy1ylPhndeF6Ss2zZMrp3745WW3yL5KdNm0ZoaChqde4jLjdunGfhwhFUqmTG/v37sLGxyXfZxsbGZKSlFVWoQiaL3nTpac1x90ik2yfwua3F0TFLW5Pi8FsxnqVztxMSn31K4fTvq9m2sAfDNm5iWBfrHOsX1cEerH//E3aeDkeToyP7Hxu/dKH3D5uY+F5Dns2rpMjjbPnoI7Z63iZNyv7i05tWs3l2U9wWrmfih87k7MqSCXafzMIp7gTGZf+8n928ks3fdOGtFTPy3k1VkPed7oXnpx9zOtWWPnvfom7IQuYOmceV+2pAhY31J3md8ZWWkZb23D4MdCQ5lStXBiAiJqZooxLypI0+wdh5FzmZWInGLVvTxd4acxK47n2avYHxJIcdZuKKxrSf3xe7p61E4v6p/9Hju4Pc1oBC3xLnlq3oXKcKJtIjgv69jOe1cB4GePL+tDQMVs5gsNWTF0txHFg5lbc8gkkBlBVs6dSqJa2qm6KNC+HUpUt4Rydx7dByXo9M4sDCobhm/Uxpw9mwYBrjzkajASpYN6ZPaydeq6xHSkwIZy5e4vLVbQy7Z00FHUsj4n3d6f3lZi4my+iZ1KRbW1dcqlZAHRfCyQuX8Il5yCH32fSXFnNslGMuo0Iy4QcXMcv9CpESKFBibFKJivplZ73JyxYZGwv81851qVChAm+++WaxxuLt7a1zfU14eBCzZr2BJGnx8NiJo2PuIz26VK5cmdiIiKIIU8jGmNdcG6O3MRK1JpDgm+ngmDm6Fo/v3N58Of8iybIeJg270baHC1UrqYnzO8mF/T7EhB3CfWB/pIPHGNX6vxYt3f+b//UYysHbGaAwxNK5F606N6aKiZZHQZe47HmS8IdeeL7fizSDc8wYbPs0WZCiDrCyx1t4XE8BhZIK9p1o1bMV1c21xN08xaUD3kTHXePQ+NeJjDvAwhmu/NeVaQnfMJxp43YRrZGhgh2N+/TB6TVr9FIiCDmzj0uXj7NtWCDWFXStAyn4+84kh29k0ay5XInUPt6+b2xGpYp5T8W8ymIjI5/bh4GOJKdFixYA+Ny6VbRRlWsyiZE3OXz54XN3V6kq1aJjQxue3ZeQ9u8Fjpo357sfvmaGU5ZrUYwZwqZ5kxh9Opp4nxPsje3N+CeJihR/hukrD3NbA3pWbVn23UwmOWT9nZJBwMGFvL7kJKEPjvHVH33oP7EphkjEnP+FD3cHk4ICswaDcP9mHAOqZmlUKXdYv2wOnxwPJ+Yfd8ZubcalMY5P4pYIO7SaL85Fo0FFrY6T8ZzRD6esSVDSbdYsmc2k05EkQ85LT6ZcYc6SrVxKBnPHd9k+bwxuWYeTU4NYt2QOE0/c5/LWH1nSbiVz62f/LSWnXmPRhkiijO0ZPnQ4n7i1xLmK8at5HY988g4IAP5r56XRo0exzJjRm4SEaDZs2EDXrl1fuAznFi3w8PAg9sEDLF5gBEh4HiWmteyoqIBYKYW4iDgkKqAEUo7PYcn3l0jGHMfp25n3rRuWWb5lUn3XsWTQRE4EXWbrxCW0Oz+X+gaA9JAz0ydz+HYG6NWg7bJdzJyUfcQlI2AjC1//gJOhIRz7ajF9+i+nqSEgxXB++ofsvp4CSjMafOLON4sGUDVLB5tyfT3L3vyE44Ex/DN3LFu7XGJMqyc9WdhGVn+xm2gNqGq9yWRPd/o5ZT1zArfXfMDsSX8TmSyT2whxgd93JjmZa4vmEBlVEfvhMxj+yTBaOlfHWHRkuYq+f5/YiAi6DR783GNzrcLatWtjaWHxtDMU8kPi1sGl9Jk+nV7P+ev7yzmic/tBoDCh15gZ2RMcAFU1hrzdjfpKkLXh+IVmXtNCS8gRD/6OlkBpxXuTpz+T4AAY4NBjAl+6GKNAIsTnMr5aQBvBph0nuCeBslIrFs/9OHuCA1ChLh9Mn820BgYoUHN9zw52JWaeOhT33ZeJlUFVpQc/TX0mwQEwrcdHM2YyqZaKnOMqEncPb8X9nhaFiTPzv3omwQEwtmfstJlMrq0C9W3We3iT9Gwpyfe5nWLPFwuXs2loJ1xFgvNcXv7+6KlUNG1aOuf6MzLSmT17IPfu3WLWrFmMGjWqQOW4uLgAEODtXZThCYCiUiWMlAAy6tS0x9Pc0l0Of+/OPbUCk+7z+eq77F/0AMZNxjJt02Rq64P62no8Dj9u0dqQzXj8fR8JFVbvrWD6pJxTSgYOw5nwpRvGCpBCjnHZ93E/qA3exI4/7yGhpFKvxcxdlj3BAajg9AHTt06jgbEC0q+z54ddPO7KNIS6/8zlWAlUNejx07pnEhwAM+p95M7MSa+hym2AuBDv+78y4rl/OxH7LzxZvmk6nVxFgpMXfy8v4L82npdcq1GhUODi6kpAWBgJSc9+rQi66BuaYFGx4vP/TAxyrXhFBWfe65xznhpAz8qKqkpATiEh+cmDUgKHL/9LGqBXvSvjWum4d4/SijHf/k2Cpycxq0bSXAVS3GX238xARkndbu8wopqO9SsG9Zn4VmsqK0BK9GHv1ccLOaWH3hy7o0FGSf2ufeipayGhcSMm9GmcY9QKKZZ9526QhIJKzj1zWWf0hNFrjO5WHz0kIn0ucinHMjEl1bu/z1c5OiYhN1qtliuBgTg5OeV7d9XLJMsyS5Z8gK/vaYYOHcq8efMKXJarqysgkpxiIWf+SlOgp6+HApAi93HuXBIoK+E8aig6m3Sr0XRrrgfaSHz2XwIkEg4f5N80GfTq0XVcb3LvyZRYjfHg74R4PGPOM7K5HiARd3A/N9Nk0KtLt6kj0NmVtZjIW70ro0Ai8dheriYDUjjex3zRyKCsP4Q+PXVNf5jQaMIHNDbM5edagd/3M++u+lDe/6p9LuuFhGdltunMNp4XnZd0cXFx4dChQ1wJDKSLuGx6Pqho8u4KLo4s+HVy9KztaKBrHZVC8Xg0RJZ4uqZOE4zvXQ0yCio5NCKvuyWoDIzJOr2bfucO/lpAUZG2LRqi++tOiaVzc1roneaoOhm/oPvQ0R51aAiBEqAwxdnRPsciwCxnpqZTI+xV/+CXdV2O5g5XQx5fNVQO3sfo2Sd1liDHRAOgjQ3BN1aiW9UsaaCiEl3bNEdcqiN//O/eJTktDZd8dA4lwd19LkePbqZ9+w789ttvhbqWj7OzMwABT371CUVHjosnWQIUKkwtLVACGb5XCUmXAZng9aOZ/ZfOVxNzH0BLrJ8v0J5gX380MigqudCoWR7rUFSGGFfM+pNJzR1ff7QyKCq3pUXLPBJ3pSXOXVugt/Mo6gQ/goI0dHS4SUigFlBi6twa+7xOXbM9jez1+Mcv+zC8psDvu1vW4KjUtR/NRUeWL5ltOj9T7jq/jzMzJO+AAJHkvCz6+nkkG7mQ4ol6JAFKrC0tXyi50j5KeLwbSlkZW8u878CiNLWimrEC1DIx8fGPX5/4iHgJUJpja5X3LiallSXWCrInOdIjYhIfdxYJYVfxC5V82wAAIABJREFUCMtH0FIc96O1kDXJUValQU1xB5n8ypyCzs8voJft4MGNbNo0j3r16rNrl8fTa90UlIWFBXXt7Qnw9kaW5TJ18cPSTcvDW0EkSYCeLTa1nqxtiY35f3vnHRbFtcbhd3ZZehFUUOyiYteIRGOJkhglscReY4kt9pgYc5N7NT0x1Ra7McYSFXvX2Bv2XrErSlGUXhbY3XP/QAidRbcJ8z7PPA/szuz5zZlzznzfKd8hTgeIGB7s24BeVfpRKKAl+nEkOkDh7pljqKcgLbFPov69Nt95ugocPctiJ0Gq7inREVqoFkVstA5QUsLTM//1mIpylHSX4Eq2e3ju+86MkjI1ash7YemBEILrp09Tw9sbFxeXAs/PtycH0sbvZSyVzEu+C9mAK6Rnw2JaNLq0Sp43WjRaAUgoFc/OUyifFR4dBQae1OjIcYpChY0VkCxRunZbBtR1KfgOFC60cMs2mCfZ4eIgv7z05dQzI0efsWxTcu7cfhYs+IySJUuxY8d2SpYsaZDf9W3cmICAACIePsS9QgWD/GaxRxfOmb0X0ALY1aV6vTTLQmFtgxWQrChN7f4DqFu64HqpKNkCyBqZurC1OSMwpFajR1ukIa0pU5LWlClRPnsLFhxBNzXX33+R+/4XCTsXPdpAGcLv3SP26VM6+vvrdX6eRk65cuWoUL48e8+eJSk5GbsX9KpkjICiBKUdFaAWhD9+RAq18xw2So68x8XwRITCCa8aFXAqWQp3BcTpIrkTlgx18vYhtBGh3FcDSHiUdgPS5gh5KCA2/fq6eV+fGh5CcPbGQSpNxVIKSAA7r7f4fqRPznk7eqFAKU/Q0wutVsuOEydwsLenbt265paThblzJ2BtbcPmzZuoVq2awX73tddeIyAggGNbt/LuyJEG+93ijPbaUnYeSgAkbJu0pVGJtM+lChUppYQEYYfXe98zso2+NTqZEqVdUZCACA/mUQq5BhdMOzWcexfvkygUOHn5UKGkFSU93VEQhy7sDmFJUCfP3hwtEXfuoxaAwoPSZa3AypNSHkqI1RJ55w7JNMu7NyX1LiHBOWNGPf99Z0WhlON66cPxbdsAaNq0qV7n5/t6GDxkCJFxcazat+/FlckYHqvK1K9ohYQg7spZAvOMe5bC4SWf8dro0TT/dhNXtGBdtSb17QASOXL0JHlHRNJyN/A457WAohSNvMsAma9PIvD4aaLyvD6Vi6fO8zC7kaOqjI+XIwp0hAVd4kY+8eYSg8+wcvdu/j54mQfFZ/N2g7Pz5EnuhIUxYOBAVCrL6Bh/8uRJxt/Lli2lWbNmBv39vn37orK2ZuPs2fI+VoZAE8SWT6YRlCRAUZomg7uTHnZLVdsHLxcFaMMICrxB3lU1keC9K9m9/G8OHn0AqKhcvyZWEoi4Y5wNTMzzypTD3/DZa00Z3bwvm65oAGuq+tbHTgLijnB0Zz6x3bR3Cdx2Hi2g8GyEd2UlWNejZn1HQJAUuJ3TeTdkpF7cxfmHOe/q+e9bprAIIdgwaxY2trb06dNHr2vyNXKGDx+OlVLJ7+vXyw2EJaJwxf+12tgB2oj9/Lr9AZpcTtNFBbI4MAItCjwa+uCjAhx86e7jjAJBxJHlTDmf+yo6XcRBJq+5TCJgVaY5PZ91TePoS7fG6dev5LcruYfP14bt4rvt90nN8Y09bVr4UFKC1Nvb+OHgk5xDWgC6p6xd+A3v/fADQ9ZdQY7B/fzM2rABgNGjR5tZyb+UL18egPHjx9OzZ0+D/37p0qXp07s3965c4cLBgwb//eKE9vFx1vfrxJx/IhAocGj1GYN6ZFoN6tSGFm+VRCKV2wt/4GBo7sM/urC1LOz9Hj8MGMK6oymAAlf/9tS2k0D7kP2/LuJBrg3ZYwIXbyJCCwqPVvj4pLVFDu2641NSAboIjnw/hfMxuaZKxJrJrAlMBKwo825P6tkAlMC321s4K0BEbGTlb8fItSXT3mXXd4u4n7Mhe4H7liksZ/fu5cH16/Tr21fvIe18jRxPT0+6de/OuVu3OH71qkFEFmXU0SFcvn2biwUedwh6Yog9dZRUbdeTvh4KJJHA3oWTGbwliKeZXInE0KNM/noGAU91SCovhnRqnBY1WFGCbu91o7EtiNS7TP/yP4zfczvT1gyphF3awICJvxDwRAdSCdr360GLjK5gF7r26cwrNiBSbvDTV5P48mgICRkpa3l6bTPvfz6LLdG5G8iuzXsxqroNku4Jq3/9lMGbLhGWuRFJCmHzn9/ySWAsOskJ/7ffpIrco/tc3Hz4kJ2nTuHXujV16tQxt5wM/ve//3H06FGmTp1qtDTGjBkDwIZZs4yWRpFAHUHI5YvcvvjvcevMMc6sXcCyse8y1LsFv6++SaqQUHkPZMLicVTOMuHBleafjKK6vYQuZDW/+g9mU2BYFgcn6fZm/uzzCYFPdEiu/rzdtwoAyqoD6dm3EgpJR8Lez5k8eAFBWRqyOxyd3JMZAWHoJFu8hoyg8bOgwYrS3XhvXGNsJUHq5el8+fZ49lyM+tdpSgnj0qwBTBwawBMtSO7t6fdxi4yhfZeun9L5FXsQSdz4qQeTvtxCyL8NGdqnJ9n8fgdmbXmcY8ucF71vmcKRXocL46hJooAumiNHjtCyZUv6vvkmf0+a9GIKiyApV+fRcGwA1/Tb9f0ZCip1+pl7H/kAKeye2o+3tzxBUeN9zs0ZQJ1cXuS6x+to028W+zUO9PlqPStapVdRHZFnF9J2cgBnEtMmB9u7lqNmGRes1BFcD35MjBaQHGn5/s9s718rUxyGVK5v/x7/aQe5pyHtWrfy1PJwRBcTwpXQ2Gc9J3Y06DyZHWNfo2wWsziFi+sn4z/7JGG6tPtyKVWR6u4OEBfK1ZAoEnUKytWphe21K9zGnRE/L2Ouz7+D5sl3NtDt01lsf6pDACpHD2qWK4UTCTx48ICHiVoESsq3nMCBL9/G61neJO77Eo9vDxFv5cOcgJ8ZmX1CskwWPpo1i+nr1rFu3Tq6du1qbjkm59UmTThz5gwr796VJyBnJuU48xq2JOBabl0nuaBwokLn//LR7Im8UiY3jyOZO7O68elH23mqESCpcKxUk3KeThD7gAfXH5KYKkBVnpbzD/Dl+14ZSx50kftY2LYLAWdiEUhI9u6Uq1kFF6sEIq4H8TgmFVDg2PIbft7+P2plDYfM9vf8mbb2XtqeVwp73GrUwsNFR8ytK4Q+fdZz4tSAzit2MLZD2SwefsrF35ns/zEnwzSAhMKlHBWrV8CBKEKv3iQqUYei3GvUsj3JldsC9xE7WTa3TaY5kM9534mr+NKjL4fiVfjMCebnkR5yMNM8CL93j75eXjRt2pSjgYF6X1dgfjZv3pyGDRqw5sCBjD1vXhaEEBy/epWU1Nz6GIsKCtwaDWP31I8ZXrcUtggSox5y9toVTt5NM3BsS9Vh2MdT2ZLFwAFQ4f3OZAJ/+oC+NUpgjSAx8gFnrl3jXGgsKUjYlarPiAnT2J/DwAGwpn7XbznwRS/e8rBBgY6YJ/c4ffUKpx9EkSQ580rbcawf1ZgSeSwbsKnahXUzv2ZSswq4KCA1/hGXrl/h6PV7PEjUonAoT4d+X3Fg0r8Gjjk5cumSHqswLIv4pCT+3LGDCuXL06lTJ3PLMQvjxo5Fp9Wyed48c0t5eZAkJJUNdqUqUOHVtrzx4U9MPn6Txes+y8PAAbCh6ph1zFw7iWbeLihIJf7eJa4fPcr1yw9I1ChwqNGBfqsPMCmTgQOgcHuDYbv38vHwFpSyBZH4iIdnj3Pl5KU0A8e2HHWGzWPqlmwGDoC1N++sDOSnn/pSw90adIlEBp3h2olzaQaOwo5Sr49gwr79OQwcAOv6Y/n2wEp6vVUZGwXoYh5y7/QxrpwOIipJgfMr/Rm3/jca59WQvcB9WwrXT59GnZj3fChzs2nuXIROx7ixhdu0tMCeHIBFixYxdOhQ/tOnDz8OH/7cIk1FSEQEy3bvZsHWrdwNCyN22zac7O0LvvClJ5WIe5c5dO0e92NTUNo6U65iTV6vUwX3Avd5SyH89iUOBd3nQVwKChsXKlapTet6lci+20KuaGO4evEcx+4+Ikprg1tJT3waNqSBmzWkxhL8OAY1VpQoWRb3XIMB6YgLD+LgpVvcjkxEa+WAh6cXzRvUpLK95fg2du3a4ebkxLAOHRjQti1VPT3NLalApq5ezYS5c/nhhx/4/PPPzS3HLCQnJ1O+QgVShWD5zZs4lihhbklFH10c4ScPcunCbSJjtVi5eODZoDkNfCtTUJVOjbjK5UMnuHf/KSlKB5zL1aTm682o4q7HyqXkcG4fPkTQtQfEqRXYlKpIlaatqVerpB7GhYaYq4c5d+wyj6I02Lh54unTmoYNPLAmhdjgYGLUYFXCk7LuebxTXuC+zckX3bpxcscO/Hr35p0hQ6jbrJnFxJaKjYzkverVsbe2Jvj+fayt9d+4VC8jJykpiTq1axMcHMyJOXPw8fZ+IcHGICk5mU2Bgfy1cye7ngX/Sqf4GDkyxkby88vyf6sGDRjk70/3Vq1wtMsrXLX5uBUSQoMhQ7B3dCTo+nWDxZ95Gfn111+ZOHEibQcM4PMlS8wtR0bGopjUpQuBGzdm/O/p5YX/++/Ttn9/PCpWNKMy+K5fP/auWMG0adMYP358oa7Vy8gBOHjwIK1bt6ZO5cqcmT8fm0JYUsZCCMGJa9f4a+dOVu7dS2weXW2ykSNjKOzatUOdknNlhL2NDT1at2aQvz+v16//b4AyM6LVamk9fjxHLl9m7dq1dOvWzdySzIpWq6V5ixacOH6c7zZtonkxHbqTkcmNL7p14/D69bl+16hNG/wHDaJlly7Ymvhdemj9er7s1o1mzZtz6OBBlIWMJ6S3kQNpyzxnzJhh9mGr9OGoxTt2cOPhwwLPl40cGUORl5GTmUoeHgzy9zf7cFb6MFWfPn1YsWKF2XRYEtevX6dBw4bYu7iw+MoVXIpxz5aMTGbyM3LSsXVw4I0+ffAfNMgkw1nREREMqlOHlIQELl648FyBQgtl5CQmJtKwQQNu375N4KxZNK1du9AJPi/qlBQ2HTnCXzt38k+24aiCkI0cGUOhj5EjQcZSU3MNZwUFB9Nw6FBc3dy4cvUqbm5uJkvb0pk+fTofffQRfr168cWqVeaWIyNjEehj5GTG2MNZQgi+6tGDQ+vW8fvvv2eEgigshTJyAI4dO0aL5s2pVq4c5xYuxN62UFtKFgohBCefDUfN27LluX+nmqenRQwfyLz83Hz4MI9YGQUzsF07kwxnabRamo8Zw8mgILZs2UKHDh2MltbLiE6no7WfH4cPHeLL1atp3aOHSdO/euIEUz/4gOQkQ8TKkpExDE9DQ0mKzz0obEEYYzhr78qVfNe3L639/Ni7Z89zt5mF2u8V0vaC+WTiRH7++WcGTJnCysmTUVkV+mf0QghBUkoKSQV4zgWRlJwsGzkyBuFF4n4nJSeTlJyMTgijxcLQ6XSMnTGDk0FBDBo0SDZwckGhUPDX4sXUq1+f34YPp2zVqnj7+JgsfU1KCurERFLUee7DIiNjcrTa598zJyUpiZSkJDQGCtcSdOoUU0eMwMHRkcV//vlC7+9C9+RA2nLMDu3bs2fvXnq0asXfkyYZzdBJJy4xkXWHDvHXzp0cvHChUNfKw1UyhkKf4arMvFqzJoP8/enl54ebs7MRlaUZOGNmzGDu5s009vFhz969uLi4GDXNl5m1a9fSq3dv7J2c+HXPHpMaOjIylkZhh6tKlSuH/6BBtB0wgAo1ahhMR9CpU3zy1lskxcezds0aunTp8kK/91xGDqTNz3m3UyeTGjrp3AkNZemuXfy1cyf3Hz0q8HzZyJExFPoYOWVcXRnQrh0D27WjduXKJtGV3cDZtXs3rq6uJkn7ZWb16tX06dtXNnRkij36GDkqGxtade+O/6BBNPTzK/RKp4LIbOCsDggwyIrQ5zZywLyGDqQ17IcuXuSvnTtZvX9/nsNaspEjYyjyMnJUSiVdWrZkkL8/bzVujJWBK39+yAbOiyEbOjIyuRg5kgTPzIO6zZvjP2gQrXr0wNFIvcPGMHDgBY0cML+hk05+w1mykSNjKLIHA2xSq1bGcJSrk5PJ9cgGjmGQDR2Z4k72YIDpw1HtBg6kfPXqRk3bWAYOGMDIgayGjq+3N0s+/5xalSoZQt9zkT6cNW/zZh5FRclGjozBsGvXDltraz7o2JGB7dqZtZzfCw9n8E8/sf/8ednAMQDpho6VtTXDpkyh69ix8oIFmWLDF926EbhxI6169qT9kCFGGY7KjlarZd2MGSz63//QpKYa3MABAxk5kGbojBs3jkWLFmGjUvHt4MF83KOH0TMpP9KHs5rVqYO1SmU2HTJFhz1nztC6YUOTDkdlRwjBwq1bmTB3LvFJSXTv3p2FCxdSQt6P6YXZvn077w8ezONHj2jQqhWf/vknnlWrmluWjIzRuXz0KJXr1DHacFR2Qm7f5sdBg7h85AgeZcrw1+LF+Pv7Gzwdgxk56Wzfvp1hQ4cSGhZGszp1+Ouzz6hevrwhk5CRKbY8jIhg6C+/8M+pU7i5ujJ7zhx69eplMRvpFQWePHnCmDFjCAgIwNbBgZG//krHDz6Q81hGxgDodDo2zZ3L/E8/JTkxkb59+zJz5kyj7atncCMHICoqinHjxrF8+XLsrK35YdgwRnbqZBH7XcnIvIxotFqW/vMPH8+ZQ0xCAh07dmTBggWUKVPG3NKKLGvWrGHEyJFEPn1KozZt+HjuXMo9R1h5GRmZNB7evMnUESM4t28fpUqXZt7cuUbfU88oRk46Gzdu5IPhw3kcEYF7iRIM79CBDzp1onzp0sZKUkamSBERHc3CrVuZu3kzDyMicHF2ZsbMmQwYMEDuWTABjx49YsSIEWzcuBEkiabvvEOXsWNp/NZb8nwdGRk90Ol0nPrnHzbMmsWJHTtACLp168acOXNwd3c3evpGNXIgret32rRpLJg/nydPn6JUKOjSogVju3alZf36ckMtI5MLp4KCmLVhA6v27SNFo8HF2Zn3Bw9mwoQJlJeHf02KEIJNmzYxddo0Dh86BEC56tXpPHo0/oMGmWwOg4zMy0R8dDQ7Fi9m05w5hNy6BUCr1q35+KOP6Nixo8ne/UY3ctJRq9WsXr2a32fO5PSZMwDUq1KFXn5++NasSWNvb6NHhJWRsVRi4uM5e/Mmp4KCWHfoECeDggCoU7s2Y8eNo1+/fjg6OppZpczFixeZNWsWy5YvR52UlLYrc+/eNGjVCu/Gjang7S338MgUS7RaLQ9v3CDo1CkuHDzIvlWrSE5MxM7engH9+zN69Gjq1atncl0mM3Iyc/LkSX7//XdWBwSQkmmvi6ply2YYPL7e3lQpWxY7GxvsbGywtbZGaaDGY+ORI3Ru0cIgv/U8CCHYFBhoVg3ZMXeepKPVatl2/Didmjc3m4bYhAROXb/Om40aGew3dTod6mf7sKlTUrgfHs7p69c5df06p69f5/qDBxnnKhUKOnfpwpgxY2jVqpXc22mBREVFsXjxYmbNns3dO3cyPrdzcqJGo0Z4+/ri3bgx1Ro04MrRo7Ts2hVrW1usrK1N/jy1Wi0ntm+nWceOJk03P45s3EiLzp3NLYPUlBTO7N5N0/btzaYhOiKCB9evU88C2t/8EEKgSUkhRa0mOSmJhJgYbp0/z/XTpwk6dYqbZ89m2eDTq1o1xowezaBBg8y68tMsRk46T58+5cSJE5w6dYrTp09z6uRJHj1+bC45MjJmoaSbG419ffH19aVx48Y0bdoUDw8Pc8uS0QOdTse5c+fS2q9Tpzh1+jSXL19G9wKbHcrIvGwolErq1auHb+PGNG7cGF9fXxo2bGgRvZpmNXKyI4QgJCQko8EICwsjKSmJpKQk1Go1Op3uhdO4cuUKoaGhNGzYkNJmmgB9+vRpoqKiaNasGQ4ODmbRkJmwsDAuX75MpUqVqGHAjdaeh+PHjxMXF0fLli2xtbU1efpCCA4cOIBGo+GNN94wWJwnSZKws7PD1tYWOzs73N3dMxqDSpUqyb01RYikpCTOnz/P6dOnmT59Onfu3KFVq1Y4OjqSUojNXQ2FuetUdh48eEBQUBBeXl5UNXMMosDAQBITE2nVqhXWZlj9K4Rgz549ALz55psWYRQAxMXFkZiYmMPZsra2zmjDHBwcqFu3Lo0bN6ZBgwbY2dmZSW0BiGJEYmKiAAQgBgwYYBYNoaGhGRq++eYbs2jIzmuvvSYAYWVlZVYdt2/fzsibqVOnmkXDoUOHMjSsXbvWLBpkigYxMTEZZWns2LFm0XDnzp0MDb/99ptZNGSnRo0aAhCenp5m1XH58uWMvJk/f75ZNGzfvj1Dw86dO82iITc++OAD0a1bN3PLMAiWYTaaiDVr1mT8vXnzZlIzzQcyFX/88UfG36tWrTJ5+tm5ceMGx44dA0Cj0XD58mWzaZk/f37G3wEBAWbRMGfOHLNrkCkaLF++POPvtWvXGqQnurBkrlOrV682efrZOXfuHDdu3AAgNDSUu3fvmk3L3LlzM/6W25t/iY2NZf78+axbt474THNsXlrMbWWZkqZNm2ZYzYDYvn27SdNPTU0V5cqVE5IkZWi4fPmySTVk56OPPsqSJ5MmTTKLjqSkJOHm5pYlb+7evWtSDeHh4cLKyiojfVtbWxEXF2dSDTJFA51OJ+rUqZOlbh08eNCkGtRqtdnrVHaGDRuWJU9+/PFHs+iIi4sTDg4OGTokSRLh4eEm1XD37t0seeHs7CySk5NNqiE3Zs2alaFpxYoV5pbzwhSbnpxz585x/PjxLJ+Z2nLeunUrISEhiEzToMzpXSUmJrJo0aIsnwUEBGTRZyrWrl1LZGRklrQz97yZgkWLFqHRaDL+V6vVbNu2zaQaZIoGR44c4cqVK1k+M3Vdz61OmbO9iYmJydK7Bebrvfj7779JSEjI+F8Iwbp160yqYcGCBVn+j42NZffu3SbVkB0hhEX2Lr0Q5rSwTEl2D4JnlrNarTaZhrZt2+bQUKNGDaHT6UymITN//vlnDj2AOHfunMm1NGvWLIcOHx8fk6Wv0WhEhQoVsni9gOjSpYvJNMgUHfr06ZOjPLu7uwuNRmMyDc2bN8+hoVGjRiZLPzszZ87Mtb25efOmSXXodDpRv379HDpef/11k2lITk4WpUqVytHe9O/f32QacuPgwYNZ9KhUKhEdHW1WTS9KsTByoqOjhZ2dXa4VbPPmzSbRcPPmzVzTB8T58+dNoiE7jRs3zlXPZ599ZlId58+fzzNvTNUAbtmyJdf0ra2tRUxMjEk0yBQNHj16lGXYM/Oxd+9ek2i4cOGC2etUZnQ6nahZs2auer777juTajl69GieeRMSEmISDStXrsw1fUdHR5GUlGQSDbnRu3fvHJqWLl1qNj2GoFgMVy1dupSkpKRcvzNVd9y8efPy/M4cXYKnT5/m9OnTOT6XJIlVq1aZdMgq8wTA7Jiqez1zF21mUlJS2Lx5s0k0yBQNsg97ZsZUdd0S6lRmDh48SNCzKN7ZMfUCjLzqOphuiDwvDfHx8ezcudMkGrLz6NEj1q5dm+Pzl37IytxWlrHJz4MAhIODg0hMTDSqhsTERFGiRIk8NVSpUsXkQ1aDBw/OUw8gTp48aRIdMTExwt7ePk8d9erVM7qGzEvXczs6dOhgdA0yRQONRiMqVqyYYxgi/XBzcxMpKSlG1WAJdSo7PXv2zLeOXb161SQ6IiIihEqlylPHa6+9ZnQNly5dyjcvevfubXQNufH999/nqsfKykpERkaaRZMhKPI9Ofl5EAAJCQns2LHDqBpWr15NdHR0nt/fvXuXs2fPGlVDZqKiolixYkW+55jK21u2bBmJiYl5fn/p0qV8n58hyLzMNjd27tyZ7/OTkUlnx44dBAcH59kTGhkZyf79+42qYfny5WavU5kJCwsrcFKvqdqbP//8M9/QIceOHSM4ONioGvLrZYO08Cb5PT9joNVqmTdvXq5BSTUaDRs2bDCpHkNS5I2cggoUGL+C6aPBlF2CS5YsQa1W5/m9JEkmWWUlss3kzwtjPp/k5OQssYtyQ6PRsHHjRqNpkCk6mLuuW0Kdys6iRYvQFrDNhSmGyHU6XZ4v8swYc8gqPj6eJUuW5HtOYmIi27dvN5qG3Ni+fTsPHjzI8xlYQoyl58ac3UjGJiwsTCiVyny7BgFhZ2cn4uPjjaLhzJkzBaYvSZKoWLGiSYasdDqdqF69eoGaAHH06FGjaskcXTi/o1atWkbTsHz5cr00+Pv7G02DTNEgc3Th/A5jxkM5fPiw2etUZlJTU0X58uXzHL7LfFy8eNGoWnbs2KFX3vj6+hpNw7x58/TS0L17d6NpyI233347Xz0KhUJERESYVJOhKNI9OX/88UeBHgSk7TVjrHgo+nh2QgiCg4M5ceKEUTRkZt++fdy8eVOvc43du6SPxwlw7do1o0Vi1lfD7t27efr0qVE0yBQNChr2TMeY8VAsoU5lZtu2bTx8+FCvXhpLaW9OnTrFnUw7yxsKIQSzZ8/W69ytW7eaLNrwnTt3CpyyodPpWL9+vUn0GBwzG1lGIzU1Vbi6uuplNQOiU6dOBtcQFRWld/qAGD9+vME1ZKdr165667GyshJardYoOsLDwwuVN8aIxJzf0vXcjgULFhhcg0zRQK1W5zuhNfvRr18/g2t49OiR2etUdnKLDZbX4ebmZrTe7Hv37hUqb6ZMmWJwDYGBgYXSYKpow59++qleet544w2T6DE0RbYnZ9u2bURFRel9/j///ENcXJxBNSxdurRQ569Zs8ao+9uEhISwadMmvc/XaDQEBgYaRUv2SMsFsXr1aoOP2evTy5Zdg4xMbqxdu7ZQe+Ft3rw533lxz0Nh65Sx593dunWLXbt26X1+ZGQk58+fN4qW7NGFC8L6xMLgAAAekElEQVQYdV3fniRjasiOWq0ucE5iOvv37+fRo0dGVmR4JGHMUm5G1Go1cXFxqNXqjCMpKYnmzZvj7e3NDz/8kOVztVpN586dqVSpksE0JCYmEh8fn0XDw4cPad++PX5+fnz44Yc5NAwcOBBXV1eDachMamoqsbGxOdIcNmwYFy9eZNOmTVk+V6vV+Pr60rRpU4NrSUhIICEhIUtat27donv37rz99tt88MEHWb5Tq9UMHToUR0dHg2mIi4sjMTExyz0fOXKEsWPHMnDgQDp37pxFQ2pqKmPGjEGhKLK+gcxzkpSURHx8fJbyEh8fT/PmzWncuDGTJ0/OUZ579OiBp6enwTSk16nM5dnUdSozqampxMTEZElPrVbz3nvv8eDBA1atWpXju2bNmuHj42NwLfHx8Rl5k35cunSJ/v3706VLFwYMGJBDy8iRI7GxsTGYhpiYmBz5v3v3bj799FOGDx+Ov79/lu8ARowYUeBE6Rdh+fLl9O/fX+/zZ8+ezahRo4ymxxhYmVuAsbC1tcXW1jbLZzqdDo1GQ9myZenUqZPRNdjb22Nvb5/lMxcXFwCqVq3Ku+++a3QNmVGpVJQsWTLH5zY2NtjZ2dGhQweTaXFwcMDBwSHLZ1ZWacWxevXqJskbJycnnJycsnwWGhoKQP369encubPRNcgUDezs7LCzs8vyWfqcivLly5ukvbGEOpUZlUpFqVKlcv3c0dGRjh07mkyLo6NjDmMu3ZCoVauWSeq6i4tLRvufTvr8yEaNGtGlSxeja8jO8ePHqVu3Lk+ePEGpVJKUlERCQgLJycm5nh8QECAbOZZM+oPL3hiZkvSKld0AMydqtdoi9KTnjfx8ZIoCllCWLKFOZUetVluEHvn5wKxZs3J8tmbNGnr27Mns2bNz9HDlZfxYMsXKyJELde7IjU5ODZaQHzIvN5ZQliyhTmVHrVbn6HEylw6Qn0920jWl934ZazjTVBSryQWWUKDS99CytEJtCXosIW8soYzIFA3k8pw7SUlJFqHHEvLGEspIdiwhXwyJbOQUQw3ZsRQjxxLyxhI0yBQNLKEsWYKG7MjtjWVpyI4lanoRipWRYwlWsyUWINmz+hdLKCMyRQO5POeOpRg5lpA3llBGsmOJml6EYmXkyGOwuWMpjY78fGSKEpZQliyhTmVGo9Gg1WotQo/8fHLHEow/Q1IsjRxLKNSWUoB0Oh0pKSkWoccS8sYSNMgUDSyhLFmChsxYkh5L0GIJGrJjiYbXiyAbOSbG0qzk9CWBlqDHEvLGEsqITNFALs85sYQ8SccS8saS8iMdS8gXQyIbOcVQQ2YsSY8laLEEDTJFA0soS5agITOWpMcStFiChuxYoqYXQTZyzKTBUroCLUmP/HxkihKWUJYsoU5lxpL0yM8ndyxR04tQLI0cuVD/iyXpkZ+PTFHCEsqSJdSpzFiSHvn55I4l5IshKZZGjiUUakspQJakxxK0WIIGmaKBJZQlS9CQGUvSYwlaLEFDdizR8HoRipWRU7VqVSRJombNmmbT4OXlha2tLZUrVzabhsyULl0aR0dHateubW4peHl54eTkRPny5c2qoUKFCi99KHMZ8+Pl5YVSqaRGjRpm01C1alWz16nMeHp6YmNjYxHtTdWqVXFzc8PDw8NsGry8vKhevXrGRqqWgCVOhn4RJCGEMLcIU5KUlGRWC1UIQUpKCjY2NmbTkB21Wo2NjQ2SJJlVh06nIzU11ax5o9Vq0Wq1WFtbm02DTNFACGH2feEsoU5lR25v/kWr1aLT6VCpVGbTkB0/Pz8OHz6MRqMxtxSDYDnmo4kwdxecJEkW1eCA5VjsCoXC7HmjVCpRKpVm1SBTNJAkyeztjSXUqezI7c2/WGJ707NnT2rVqmVuGQaj2PXkyGQj5Sm3Llzk+oMI4jTWOJcqi1e9hniXtqyGUUZGRkZGprAUs56caDYMbcKoLdHoUFC6+yKOz34H482+0HD669a8O+cmuXX8SZKEpFCisnXExa00npVr06T9+4we8BoeRjXudURdXMOMn2exZPNx7sdpyGzpSgo7yr7iT6+hHzFxaEvKGrqUaE7zdet3mXMzl1yRJJRWNjiUKE25qrVo2MSP9t278aa3i3EmkOWnJR9UdT5m567/ULeY1SAZmaJDCk9vXeDi9QdExGmwdi5FWa96NPQujeziFSFEMUIbtkh0LCEJQABCUbK7+PuJMVNMFscm1hJWz9LT65CsRcV3Z4nzSUaSpH0k9n37tqhok54PkpBUTsKjYjVR3auCKOVgJaQMLVai5Ktjxdo7qYbVkHxMTKxlpXeeSFZuokHvn8S+EI1hdTyHlvRD1fALcc7A2SIjY0yi1g8RNcq4C3d3d1GmziixLc646aWe+ko090xLL8fh4SE8ypQVnhWqiBp1fUTztt3EsMl/iqPhRqjj2dBGXhCrvuwnWlR2ElZS9vZXIew8fUSXj+aKQ6HGqOCp4tRXzYVnbnni7iE8ypYTFavVET6tOor3PvxOLNoVJKK1RpBRoJZ8jnJ+4sdLL0/jV4z8UC33A5azN0agcPPEIzGMsMh/WLY2hN4flDP+MjOrGgz4/Rd6lM+Wki6VpNgIgq8eZeOyVQQ+TCZ48wT6/Lc2J6f6GbaXSRfB7on+dJ12jnghYVe5HaMmfcao7i2p6vKs60gTxbW9K5g9ZQoLD4Xw9OQs3usAjoem066k4XPJqsYAfv+lB5mzRWiSiY8M4eaFo+zatJVjwZFcWPUZ/sdPMmvb3wyrbRw/KzcteaFwqYFXMao9Mi85unDWL17HzfDotF7bJwEs3vwN7/QtabwkNQlEPn7M44I6SR/c5cblMwTuWs+SJZuYunkVoxsYY96Ojsf7f2DQoO/YGZyMACRJhZNHWTycVSRHhRP2NIGk0DNsmHaWLUsXM3L+KqZ2q2LAIQ8dmoRIHj9+nGvvfhohBN+6wpmDW1g+8ysm1u/Of6b9xgQ/Twzbwa+PllxQeZL4Es1JLj7NtCaIv/8OJEkoqdhzKp+HfsDIzbEcWLaCW0MnUsPYc78kJ7xavEOHPMc3hjN+9NsMeK0fKx4kE7T4d9b/z48BBmuDdIQGjOX9GeeJFwrcWkxi3fovaV062xvdypVa7UYzq00n3hr9Nr0XXEF9bR7jvu7C2Zl+OBhKzjMkJy9avNMhj2GfcXzx8z22fjWAwb8cIeLeesb2+h81jv5KKycDCylQi4zMy4v2fgDL98YgFG54eiQSFhbJP8vWEtL7A8oZ38OjxoDf+aVH+WzOpI7UpFgigq9ydOMyVgU+JDl4MxP6/JfaJ6fiZ1gPj4jdE/HvOo1z8QLJrjLtRk3is1HdaVnV5ZnxoCHq2l5WzJ7ClIWHCHl6kllpHh7T25U0vCOcm+MrNCTHRxJy8wJHd21i67FgIi+s4jP/45yctY2/h9U2zlBaXk54bihcqPEyeXjm7koyFcnHPhW1rBBYVRfjDyWJJ8u7CVcFQlI1FJONNu6QabhK5SO+LrCLL1kc/LBa2vlWNcTHR5INJyVutxhZNW0oSlm+j1gVokcfaEKgmFhHJSQQCrfuYsVTA2nJNESk8vlaFNzzGSn2flhHWEsIJHvx2pTLwmCd2oXWIiPzspEqLn/rK6wlhLLSCLFqXifhIiEk2+bi5+vGGx5KPjYxrc1FJXy+viTyrVqah2JV3wpCCQKphOiyxLDzCLQhK0SvcspnbVkL8cX+xyLvFlAjgjd+IOrYSgIkoaoxVuyLN5SSwrwT1OLuls9Ey9JpuiWbumLCgVhDCSmklpeXYhIMMJFDS1dzQwNWNbrSu4ktJd/pSTs3BSL1MquWHCXZ3BIBUFKmTCkMHz1Cx+N1s1l5T4OQnGj96fd099Tj0ds3YegAX1QS6KID2XtMbXBl+uHKG198SXcPBYhETi1dyqkUM0mRkXnZSDnN0hXnSBFWVO3Sl3e796RNCQUi+SQrll8q3FCFsVCWo8sHXaliBYh4rlwIwnBVPJ59301iXagWoSxPrzkBfNm6dD49M0oqvDuVBWNro5IEqbf+Zs7mSIOp0R8bKneYwqZVY6htLSGSrzD389lc0ZpByktM8TByYnayZEMwWklFve598LEGXN+m59ulUaDhzpql7I43t0gADSEPw9EBkp03daobqkswmn827SdGB5JLGwb2raLn2K6SGhP2E5OYQELcHeb4mzG+hds79PJ3RwFobu1n7y25psuYnuTwUCKyFz11MIErpjJ5/HDe69aJju92o9/Qj/lmzkbO55iQkszj0AiTGhaJh5ayOs3Do2vvJtiWfIee7dxQiFQur1rCUcvw8FCWKUMpI8QH1D1ex+yV99AICafWn/J9d089Xnz2NBk6AN80D4/Avccwm4v3xhd82d0DBYLEU0tZKnt4haIYGDk6Hm9cxtbHOiTVK3TrVffZRCQn2vbqQFklaMM2sWyrOSz1rKTc+Iupa4LRoqRc18F0djfQ40k+y9Ez8QgkVK+0prVrIa5VWmNra4+9vS3WZo1ZZcervnVRSYDmJpevWkjLLFMM0PL0/Bq+G9SCarVGsi0x/XMdkYG/0LluLVr2m8B3Mxby9/otbN28nhWLpvHl6K409n6V4Stv/dsroXvMqve8qfHGcH7ZdJVonbG1x7BzyQaCtRKqet3pk+bh8XbPtymtAM2dNSy1DA8PTchDwtM8PLzrVDfYhNHofzaxP83Do83AvlTRsx1T1pjA/phEEhLiuDPHH/O5eG6808sf9zQPj/17byG7ePrzEs0eek50D1i9bDcxOgmbJj3p7f1vCXfw60WHcn8xP/gpO5euJbTncPQZxXkuRBz3ju9i58Ocq6sSo0K5cWY3q5dt4vxTCdcmE1n8SyfcDJS0Lvomt8K1gBL36t4YynYyLQpKVKqImwRhukQehUWhw96gVrqIu8fxXTvJ/ohyoCxJ7dd9qSgH0yjixHFj+yJmzJjD8r23iNUpca3/MRWeReDXhaxkRI/P2RSmRbIuQyP/d2hRqxwuUiyh14+xc+cpQqLP8cfwAVSuc4j/1rcChQMVa3oQueAPPj2wmCm13mbQmPGMHfgGVewNfwe6xxtZtvUxOklF4269MibVO7XtRYeyK1gUEsamZVv5uUNvg7U3z0XKDf6auoZgLSjLd2VwZ3cD1e1kzh49Q7wAyfoVWhfOw8PaVoklbPBi96ovdVVLCE/WcPPyVZKpjRGKS5GkyBs52usrWH4kESHZ0bxn96xWvP3r9H63En/8foe4/ctZeWcIE6oZqbtCc4PFw9qzOL9zJCUlm3zE4oBvaZN91dMLIJ48IVoAKHAtVdLAyxBNh8LZGQcFoBMkJ6mzBDA0BJobixnWPt8nlIa1HzPv7GGs8ZelyJgDdTCHls9m+u9/svXSEzSSI1VaD2Pyh+MZ1qEWLgoAHQ/XLmJzuBasqvL+mqMs7OSR5cUcc/wr3mn3DUdjT7FkyQk++a051rjRec5l7nywgXnTZzIvYCvTRm1l9teN6DLsQz4a3YsmZQz1WtXxYPUydsfokGya0LO3979138GPXh3K8df8YJ7uXMra0J4MN56HR9y94+za+TDn6qrEKEJvnGH36mVsOv8UybUJExf/QifDeXjcvBWOFlC6V8f75fTwUJSoRMU0D4/ER2FE6cDesB5e7k54DpSUrP06vi+Rh1fEjRwNZ5et4GyyQHJuTa9uFbJVMhua9eqM19yp3Eg+zt/LLvPh1w2MkymSCnsXJ2xzKUPapDhi1akIoeXp8d/oUn8nfX9dwbyh9QxirQudjvRecfEy7+IhdM8MGwmVysrgE7QllT0uTrYFe5DWzrk+R5mXG83jM6ydN52ZC9ZyPEQNtuVo0vcrxo0fSY/G7tnaBR2PH0egE4CyGq++5pGj3Lg0ncB3kx7w1yUNqvKCf0emlLg16M5/F3dnwvdHWTl7Or//sYnV3w1kzbTJtOw9gnEffkDneq4v1puhvc6K5UdIFBJ2zXvSPauHx+u936XSH79zJ24/y1feYciEakZygDTcWDyM/P0HCWXJJny0OIBv2+Q3KbiQiCc8SfPwULiWouTL6+HhnObhIZKTUBvewyvYCQfAGr+Zd9gz1gSx5QxE0TZy1IdZGnCNVCRsa9Wl9PXDHLyR7RxNVRp4KLkRksqlVUs58d/faG4MI9WqPv85fJwvcg3CokP99A6ndy7lpy9/Ydvtyywf1QW7sieZ297thQuTwtkZRyktnagnT9Hycj54XVQ0sTpAUlKi5IvnS3as6v+Hw8e/kOPkFCt0xARtZ9H06cxZsZ87cQKrkvXoPHEMH47pT6uKec3EUFCxamVspcukphzk11Ezqfv7KJqXyVx4nPCbuAi/fFK38WzGoO+bMei/t9m9eCbTZy9l15+fc2jJT9RoO4Ax48fx/ltezxWfSnN2GSvOJiMkZ1r36kaFbBXGplkvOnvNZeqNZI7/vYzLH35NA+N4eKjsXXDK3cMjLlZNqhBonx7nty712dn3V1bMG0o9w3h46P718Aze+2s6RJpBDUgqFVaG9/DydMKzYo3zy+bhmXsNuzGJ3ThQeCoLEa5fWV4M3WawgAjieeIQpN6cLdq5KQRIwq71NHHbEGEsEtaJfs9+09pvhgguRJhwbeQxsfTnKWLKlJ/Ewv0hBhAjnjM2jUbc+rm5UIHAykuMO2CgGEJynJxiSoK4t3+emPBuXeGmkgSSUjhXe0uMnLpVBMXqWUGiD4rPfZyE4tn2KAo7T/GKf3/x0XdzxZoDV8Xj5ymi2khxaf2PYkirSsJBIQkklXBv1F38d3GgCFEX5oeSxL4xVYUShGTbRHy6Yb84cOBAtmOPmNWjXFpsGqsa4uMjhUqgQPSNk6NNeiJuHl4uJnfwErYSAkklvIZvFU8NsZ2B9p6Y+rq1AISy3DCxw7C3+Bw8Z2yapI1iQOln74V3lwjDRMspHnFyiq6Ro30slnV1EwoQkspOOLu4CJc8D0dhrZQEKETpXquEoWLePV8hihZ/d3VOC/7k3F2sNITNpbktfm1pnRYIy7W7WBGp/6XJB8aKqsq0PbVaT7tvADHi+QwL7UMxr51jWr44vSv+MltgQpmigDZ4hvCzRiApRSmf98Q3q86Kx8/hUGgjT4qFo9uI6i6Z9nx7ZvSoXCoJ3y7jxdzDofkHwsuVZBF2fKmY3L2uKKFAgI3ouLgQr7bYjWKgp7IQ+7EpRfmh24RBXbzCBAMUQojUm2J2u2dttl1rMc0wHp5Y1+/Zb1r7iRmF8/DEsaU/iylTpoifFu4X+sRPLZjnMyw0t34WzVUIsBJe4w4Iw7h4xcPIecn6nfRHF7KWZbui0GFF9TG7eBwdTXReR2QQM9o4IKHjyY5lrA8z+rrOfLDBydkWCRDJccQkFnhBwSgr0rZNPawk0MXsYcX6UPS7Qw3XDxzlgRZQVsbn1TIGEPN8aK4t5a9DCQgk7Ju05Y0SZpMiUxSwdsXV2QpJ6Ii6dZLAw4c4fbvwS6kVrr4MnbWboJDbHNv0Bz/9ZyhdW9ehjL2EJuY+pzZMZ9Qbvrz7+8VCBRzVRd/k+MFDHDl9l1gBksoVtxL6Ntc6IjYtZUu4FiQVds4uuLjkfThaK5HQErppKWaNpGFVjX4DWuMogVCfJfCkISLT2NDwlTpYSSA05zl8JEb/SzUXWfHV53z++X+Z/Pd5MwZN1BG+Zy8XNIBkR91G9SxixdfLQhE1crTcXLmcQwkCVDXp1qdp/vt9KMrSuUdrnCQQcftYvuqu+eIQaB8SdDNtEz2FaznKG2SPJitq9+tPCwcJdDH88/P37I7S47LoXcz86zypgFXV9nT2MVPV0gSx4JNpnEwSoCjNO4O7m2C/HZmijMKjP2tunGPdj4N53TWE3XPG075uFRp2/Q9/HH5Q6MBvCoeKNOk0hE9/XMi6/ZcJCb/Brlkjec3dClJD2PH5h8zRI4Blwt29zPmoI3WrNKTrfxZxKNKTNiOmsuXSDf7srOfMHF0Ia5ftIkoHVtXHsOtxPg5edCRBM9rgIIHuyQ6WrQ/T0wEyDjZOztimeXjEGcbDo2LbNtRL8/DYs2I9oXreoOb6AY6meXhU9nmVMuZqczTXWPrXIRIESPZNaCt7eIWiaL4qNBdZvuIUyUJCVb87fV4paDadAvdOPXnTRQFCzdG/l3PFLGa7jkfbfmT+iVQECkq/8TbNDRSBSuk1hC+GeqeFKb+5gCGDZnMxIZ8LNPcJGDeWJfe1IDnz+qgRvGaGVYPax8f5vV8nJvwTgQ4FJVp9xlc9DBVDQ6Y4o3CtS5f//MG+m7c5vuwL+jSy5vrGnxnWqgbVmg3gm1XniMirHdBFc2n7CpYv/5v1J3IaBgonL9qMnsO22T1xV4BIPE3gqbxMpxTCji9lcq/GeNV8i9EztnPfuRmDvl/N2bvX+GfOR7T3dtK7zGtvrmT5oQQEKmp260PT/D08ynbuQes0D499y1dx13weHg+DbqaFu1C4Us4wHh5WtfvRv0VaT33MPz/zvX4eHrtm/sX5NA+P9p19zNR7oiFowSdMO5mU9k54ZzDdZQ+vcJh7vMwYqA98KKpZIZBsRLMfg/TczDFSrOxZMm0SoZW3mBBoiFHPzGOedcSYDefEhQsXch7nz4pje9eKWZ+0F9XsJQEIhXNL8dNFA27QKYQQsYfFJF/ntHuUFKJEg37ipy1XRVSWDEoW4SeXiYlvlhcqCQEK4er3qzColMzzYOqMERvOZc2P86ePij1r5ovvxnQSdUoon811kISt9/si4J6BNxQsQEtex8VrISLOsEpkzE6SuH9wgZjYpYEopZIEkkI4VWsjRvy2RVyLzjYhQxsmZrexERKSsPObLu7kUSzV+8aIKkoEkrPoGZCQ9UvNU3Fx7Q9i8OsVhb1CEkg2okzjXmLSkmMi9LnrW6o4O6mBUEkISeUjvrqoxzwL7WOxtEuJZ/MXfcRXFwwzN6Owc3K04ZvEEK+0uU0Kj75iTZRBZAghhIjbP17UVKVtuGlVrpOYdSG/2Uep4t6q/qLqs/Od35guDLePaSHmwWgeiWMze4rqts/eCSX8xNQrhpw3Uzzm5BRBIydObBmctmJAsvcTM+7qXzqj170n3BVpk/AqDtthgEl4mQqR3ockFCUaiTHr7xtup+1MaMN2i0mtyzwzYBBIkrBxqyzq+jYTzZv6iNoVSmT6TilKt/yf2PPIIDPu/iWTYaHPISmchHfXKWJfmBFypJBa0g9lpZFij9lXasgYi7jr28X00f6ihotSSEhC5VZXvPvJfLH/XrqhohFXf2yWthpIUVK0mLhOXMu2Kivp/i7xhV+pNOPBvrWYmj6RNu6W2DlzrHjbu4RQSghJ5SbqvvuxmLvvrshmBhUe9QHxYTUrAZKwafajCNKzykSu7ClKKtImtnpPCDTIxNbMRk6dMRvEuVwdhvPi7LG9Yu2sT0T7avZpDo3CWbT86aKBJtemEysOT/IVzor0NraB6PfTFnE1q4cnksNPimUT3xTlVc8MC1c/8athPbz8Hd/zp8XRPWvE/O/GiE510soHICRbb/F+wD0DvxP0dMKzHxeviZCXyMMrekbOkxWiR8m0pXZO/vMLNyM+brN4/9mKBIV7H7G6EKuQckdfI0cSCpWDKF3NV3QcNVXsuJP0ognnT2qoODRrlHirRglhJeWiR1IKx8qvi8G/7BL3DNyZJITI37CQJKFQ2QinUhVEzVfbij4f/iRWnQx/jtUpBtAiGznFHs3TC2LtD0NEq0oOQiEhJKduYkV6Ax97WPzXxzGjp1Fh7y686vqIps2aCp9a5YXLsxclkqPw+fxQ2rJfbaiY29ZeSEhC6VxNvDXiN7HlWrQwlBsRt2WwKKdEINkLvxl39X8pRq8T77kr0sp2xWFihwGWWf1r5Oh/SIoSotGY9eK+cTw8sXtSa1Em/bkgCcnGTVSu6yuaNW8qfGpXECUyfacs3VL8b88jgz2bNArp+EoK4eTdVUzZF2YEp/d5nHAEykpi5EvU+BU9I0emECSJsEv7xfql88SMX38WP/0yXcz9a63Yc+6hQZeSysi89CSHiRPLvhB9Xh8uVmbyYrWPD4vpA3xFGRsplxeCJGzLNRNDZh4Rj9PflNqHYuEAPzHw2wBx7omhX1tPxIoeaUPukpO/mF84D09sft8zLWaOwl30eXEPT28jR1KohEPpasK34ygxdccdYVwXL1WEHpolRr1VQ5Swyv2ZKR0ri9cH/yJ2GcfDy8ewkISkUAkbp1KiQs1XRds+H4qfVp0U4cbz8IqFkSMJ8TLH+ZeRkZExP5qnQRw7cpqr9x8Tr7WlhHsZPKvWp6lvNVzlCNoWiTr8MsePneP6g8fEqgXWzqUpX70BTZs2pNzzhJiWsUhkI0dGRkZGRkamSCKvRZORkZGRkZEpkshGjoyMjIyMjEyRRDZyZGRkZGRkZIokspEjIyMjIyMjUySRjRwZGRkZGRmZIsn/Adn73BxEl8IjAAAAAElFTkSuQmCC;" vertex="1" parent="1">
          <mxGeometry x="141" y="30" width="569" height="212" as="geometry" />
        </mxCell>
      </root>
    </mxGraphModel>
  </diagram>
</mxfile>
